# xmcd CD database file
# Copyright (C) 1996 Ti Kan
#
# Track frame offsets:
# 	182
# 	27340
# 	52790
# 	71460
# 	90430
# 	142175
# 	161785
# 	181622
# 	203332
# 	219067
# 	241300
# 	261852
# 	297255
# 	331915
#
# Disc length: 4644 seconds
#
# Revision: 1
# Processed by: cddbd v1.4b41PL1 Copyright (c) Steve Scherf et al.
# Submitted via: DiscPlay 3.4.1
#
DISCID=ba12220e
DTITLE=Climax Blues Band - Blues From The Attic
DYEAR=1900
DGENRE=
TTITLE0=Fool For The Bright Lights
TTITLE1=Chasin Change
TTITLE2=Don't Start Me Talking
TTITLE3=Take Me Back To Georgia
TTITLE4=So Many Roads
TTITLE5=The Seventh Son
TTITLE6=The Last Chance Saloon
TTITLE7=The Movie Queen
TTITLE8=Towards The Sun
TTITLE9=Couldn't Get It Right
TTITLE10=Evil
TTITLE11=Going To New York/Money
TTITLE12=Let's Work Together
TTITLE13=Let The Good Times Roll
EXTD=
EXTT0=
EXTT1=
EXTT2=
EXTT3=
EXTT4=
EXTT5=
EXTT6=
EXTT7=
EXTT8=
EXTT9=
EXTT10=
EXTT11=
EXTT12=
EXTT13=
PLAYORDER=
